<!-- Simple SVG icon for TikTok Extractor -->
<svg width="128" height="128" xmlns="http://www.w3.org/2000/svg">
  <defs>
    <linearGradient id="grad" x1="0%" y1="0%" x2="100%" y2="100%">
      <stop offset="0%" style="stop-color:#667eea;stop-opacity:1" />
      <stop offset="100%" style="stop-color:#764ba2;stop-opacity:1" />
    </linearGradient>
  </defs>
  
  <!-- Background circle -->
  <circle cx="64" cy="64" r="60" fill="url(#grad)"/>
  
  <!-- TikTok music note icon -->
  <path d="M 45 35 L 45 70 C 45 76 50 81 56 81 C 62 81 67 76 67 70 C 67 64 62 59 56 59 C 54 59 52 60 50 61 L 50 45 L 75 40 L 75 65 C 75 71 80 76 86 76 C 92 76 97 71 97 65 C 97 59 92 54 86 54 C 84 54 82 55 80 56 L 80 35 Z" fill="white"/>
  
  <!-- Clipboard overlay (bottom right) -->
  <rect x="75" y="75" width="35" height="40" rx="3" fill="white" opacity="0.9"/>
  <rect x="80" y="80" width="25" height="3" fill="#667eea"/>
  <rect x="80" y="87" width="25" height="3" fill="#667eea"/>
  <rect x="80" y="94" width="20" height="3" fill="#667eea"/>
</svg>
